<svg width="61" height="62" viewBox="0 0 61 62" fill="none"
    xmlns="http://www.w3.org/2000/svg">
    <path d="M20.8675 20.8333L20.8675 18.125C20.8675 12.6021 25.3446 8.12498 30.8675 8.12498V8.12498C36.3903 8.12498 40.8675 12.6021 40.8675 18.125L40.8675 20.8333" stroke="#33363F" stroke-width="3" stroke-linecap="round"/>
    <path d="M38.3675 36.0833V31" stroke="#33363F" stroke-width="3" stroke-linecap="round"/>
    <path d="M23.3675 36.0833V31" stroke="#33363F" stroke-width="3" stroke-linecap="round"/>
    <path d="M10.8675 24.8333C10.8675 22.9477 10.8675 22.0049 11.4533 21.4191C12.0391 20.8333 12.9819 20.8333 14.8675 20.8333H46.8675C48.7531 20.8333 49.6959 20.8333 50.2817 21.4191C50.8675 22.0049 50.8675 22.9477 50.8675 24.8333V45.875C50.8675 49.6462 50.8675 51.5318 49.6959 52.7034C48.5244 53.875 46.6387 53.875 42.8675 53.875H18.8675C15.0963 53.875 13.2106 53.875 12.0391 52.7034C10.8675 51.5318 10.8675 49.6462 10.8675 45.875V24.8333Z" stroke="#33363F" stroke-width="3"/>
</svg>
