<svg width="55" height="54" viewBox="0 0 55 54" fill="none"
    xmlns="http://www.w3.org/2000/svg">
    <path d="M16.6175 16.0468V9.11204C16.6175 6.96614 16.6175 5.8932 17.3071 5.29511C17.9967 4.69703 19.0588 4.84877 21.1832 5.15224L42.966 8.26408C45.4222 8.61495 46.6502 8.79039 47.3839 9.63628C48.1175 10.4822 48.1175 11.7227 48.1175 14.2038V39.7962C48.1175 42.2773 48.1175 43.5178 47.3839 44.3637C46.6502 45.2096 45.4222 45.385 42.966 45.7359L21.1832 48.8478C19.0588 49.1512 17.9967 49.303 17.3071 48.7049C16.6175 48.1068 16.6175 47.0339 16.6175 44.888V38.3984" stroke="#33363F" stroke-width="3"/>
    <path d="M36.8675 27L38.0388 26.063L38.7884 27L38.0388 27.937L36.8675 27ZM9.86749 28.5C9.03907 28.5 8.36749 27.8284 8.36749 27C8.36749 26.1716 9.03907 25.5 9.86749 25.5V28.5ZM29.0388 14.813L38.0388 26.063L35.6962 27.937L26.6962 16.687L29.0388 14.813ZM38.0388 27.937L29.0388 39.187L26.6962 37.313L35.6962 26.063L38.0388 27.937ZM36.8675 28.5H9.86749V25.5H36.8675V28.5Z" fill="#33363F"/>
</svg>
