<svg width="62" height="62" viewBox="0 0 62 62" fill="none"
    xmlns="http://www.w3.org/2000/svg">
    <path d="M40.2632 13.2084C43.8329 13.2084 45.6177 13.2084 46.8998 14.0651C47.4549 14.4359 47.9314 14.9125 48.3023 15.4676C49.159 16.7497 49.159 18.5345 49.159 22.1042V46.25C49.159 51.0427 49.159 53.439 47.6701 54.9278C46.1813 56.4167 43.785 56.4167 38.9923 56.4167H23.7423C18.9497 56.4167 16.5534 56.4167 15.0646 54.9278C13.5757 53.439 13.5757 51.0427 13.5757 46.25V22.1042C13.5757 18.5345 13.5757 16.7497 14.4324 15.4676C14.8033 14.9125 15.2798 14.4359 15.8349 14.0651C17.117 13.2084 18.9018 13.2084 22.4715 13.2084" stroke="#33363F" stroke-width="3"/>
    <path d="M23.7424 13.2083C23.7424 10.4009 26.0183 8.125 28.8258 8.125H33.9091C36.7165 8.125 38.9924 10.4009 38.9924 13.2083C38.9924 16.0158 36.7165 18.2917 33.9091 18.2917H28.8258C26.0183 18.2917 23.7424 16.0158 23.7424 13.2083Z" stroke="#33363F" stroke-width="3"/>
    <path d="M23.7424 31L38.9924 31" stroke="#33363F" stroke-width="3" stroke-linecap="round"/>
    <path d="M23.7424 41.1666L33.9091 41.1666" stroke="#33363F" stroke-width="3" stroke-linecap="round"/>
</svg>
