<svg width="23" height="18" viewBox="0 0 23 18" fill="none" xmlns="http://www.w3.org/2000/svg">
<path d="M21.8216 12.7194L16.9079 11.0319C16.698 10.9602 16.4647 10.9451 16.2431 10.9889C16.0216 11.0326 15.8238 11.1329 15.6795 11.2745L13.5034 13.405C10.0883 12.1147 7.3399 9.91225 5.7297 7.17555L8.38835 5.43177C8.56545 5.31634 8.6908 5.15782 8.74542 4.9802C8.80005 4.80258 8.78096 4.61553 8.69107 4.44738L6.58521 0.509807C6.48654 0.328542 6.31204 0.180544 6.0918 0.0913347C5.87155 0.00212529 5.61937 -0.0227045 5.37872 0.0211269L0.816022 0.864892C0.584012 0.907825 0.377013 1.01251 0.228809 1.16186C0.0806042 1.3112 -5.34455e-05 1.4964 2.65699e-08 1.68721C2.65699e-08 10.7049 9.12101 18 20.3567 18C20.5949 18.0001 20.8261 17.9355 21.0125 17.8168C21.199 17.698 21.3297 17.5321 21.3833 17.3461L22.4362 13.6898C22.4905 13.496 22.4589 13.2931 22.3467 13.116C22.2345 12.9389 22.0488 12.7987 21.8216 12.7194Z" fill="white"/>
</svg>
