<svg width="24" height="22" viewBox="0 0 24 22" fill="none" xmlns="http://www.w3.org/2000/svg">
<path d="M22.005 12.8883L23.9747 4.22164C24.1169 3.59589 23.6413 3.00001 22.9996 3.00001H6.63367L6.25175 1.13293C6.15658 0.667552 5.74708 0.333344 5.27204 0.333344H1C0.447708 0.333344 0 0.781052 0 1.33334V2.00001C0 2.5523 0.447708 3.00001 1 3.00001H3.91179L6.83879 17.3098C6.13854 17.7125 5.66667 18.4676 5.66667 19.3333C5.66667 20.622 6.71133 21.6667 8 21.6667C9.28867 21.6667 10.3333 20.622 10.3333 19.3333C10.3333 18.6803 10.0647 18.0902 9.63233 17.6667H18.3676C17.9353 18.0902 17.6667 18.6803 17.6667 19.3333C17.6667 20.622 18.7113 21.6667 20 21.6667C21.2887 21.6667 22.3333 20.622 22.3333 19.3333C22.3333 18.4095 21.7963 17.6112 21.0175 17.2331L21.2474 16.2216C21.3896 15.5959 20.914 15 20.2723 15H9.08821L8.8155 13.6667H21.0299C21.4968 13.6667 21.9015 13.3436 22.005 12.8883Z" fill="#EBFF00"/>
</svg>
